#!OML:ASF H:\Punching\Project 1\Capture day 1\Session 1\female.ASF
:FULLY-SPECIFIED
:DEGREES
2439
root -2.60136 15.5562 7.32032 12.1381 -1.15211 0.792402
lowerback -4.37486 -0.911102 1.34244
upperback -7.27707 -1.21309 0.641011
thorax -5.0957 -0.660114 -0.0841146
lowerneck -10.9809 4.45442 9.33647
upperneck 27.7244 5.91495 -5.82963
head 11.2488 2.98916 -2.96016
rclavicle -3.50358e-015 -2.0276e-014
rhumerus -42.5082 -6.03502 -71.4777
rradius 50.3507
rwrist -4.96156
rhand -13.1788 -12.6456
rfingers 7.12502
rthumb 12.9209 -42.2256
lclavicle -3.50358e-015 -2.0276e-014
lhumerus -55.8507 9.83517 66.4825
lradius 63.1421
lwrist -4.75525
lhand -10.6033 15.9202
lfingers 7.12502
lthumb 15.4026 45.3264
rfemur -17.6428 3.12586 18.8195
rtibia 33.2263
rfoot -24.8647 -20.2705
rtoes 1.62183
lfemur -7.11358 -9.87376 -15.6691
ltibia 18.3248
lfoot -20.5415 21.1092
ltoes -5.813
2440
root -2.608 15.5491 7.34052 12.0404 -1.46601 0.736146
lowerback -4.36183 -0.918746 1.43905
upperback -7.26436 -1.22654 0.598145
thorax -5.0931 -0.673422 -0.182318
lowerneck -10.8662 4.55729 9.40995
upperneck 27.8355 6.07843 -5.8884
head 11.2885 3.06641 -2.9756
rclavicle 8.12532e-015 -8.74653e-015
rhumerus -41.8497 -5.38644 -71.9388
rradius 52.3783
rwrist -6.12166
rhand -13.6516 -12.339
rfingers 7.12502
rthumb 12.4651 -41.9473
lclavicle 8.12532e-015 -8.74653e-015
lhumerus -55.6342 9.63349 66.1502
lradius 65.4999
lwrist -4.96552
lhand -11.6801 15.5939
lfingers 7.12502
lthumb 14.3653 45.0769
rfemur -17.4967 3.15272 18.8573
rtibia 33.2194
rfoot -24.8835 -19.9502
rtoes 1.33739
lfemur -7.42152 -8.94147 -15.644
ltibia 19.3727
lfoot -20.7798 20.5129
ltoes -6.59359
2441
root -2.61497 15.5426 7.36053 11.9439 -1.76229 0.665237
lowerback -4.33173 -0.928048 1.55792
upperback -7.25207 -1.24186 0.559088
thorax -5.10124 -0.688723 -0.288654
lowerneck -10.7584 4.65961 9.48422
upperneck 27.9492 6.24259 -5.95333
head 11.3312 3.14321 -2.99333
rclavicle 5.31749e-015 -4.37326e-015
rhumerus -41.1704 -4.73458 -72.3834
rradius 54.4733
rwrist -7.25108
rhand -14.1506 -12.0527
rfingers 7.12502
rthumb 11.9839 -41.6897
lclavicle 5.31749e-015 -4.37326e-015
lhumerus -55.3805 9.43246 65.8141
lradius 67.8772
lwrist -5.32712
lhand -12.6756 15.2041
lfingers 7.12502
lthumb 13.4059 44.7527
rfemur -17.3362 3.18568 18.9173
rtibia 33.1828
rfoot -24.8772 -19.6541
rtoes 1.01665
lfemur -7.87414 -7.98082 -15.5883
ltibia 20.6771
lfoot -21.0284 19.8675
ltoes -7.51645
2442
root -2.62185 15.5367 7.38037 11.8507 -2.03877 0.577831
lowerback -4.28652 -0.938206 1.70406
upperback -7.24001 -1.25793 0.525205
thorax -5.11894 -0.705683 -0.404541
lowerneck -10.6527 4.75862 9.55168
upperneck 28.0573 6.404 -6.02006
head 11.3721 3.21774 -3.01086
rclavicle -8.10048e-015 5.96354e-015
rhumerus -40.4669 -4.0818 -72.8034
rradius 56.6224
rwrist -8.31713
rhand -14.6428 -11.7731
rfingers 7.12502
rthumb 11.5092 -41.4371
lclavicle -8.10048e-015 5.96354e-015
lhumerus -55.0845 9.22709 65.4837
lradius 70.288
lwrist -5.73154
lhand -13.5714 14.8092
lfingers 7.12502
lthumb 12.5424 44.4127
rfemur -17.1585 3.21139 19.0003
rtibia 33.109
rfoot -24.8467 -19.3745
rtoes 0.690466
lfemur -8.48048 -6.99832 -15.5015
ltibia 22.2531
lfoot -21.255 19.1834
ltoes -8.65745
2443
root -2.62859 15.5323 7.39959 11.767 -2.29548 0.473914
lowerback -4.23239 -0.948637 1.87361
upperback -7.22732 -1.27393 0.497799
thorax -5.14166 -0.723645 -0.526595
lowerneck -10.5435 4.85434 9.61211
upperneck 28.1518 6.5622 -6.08648
head 11.4067 3.29009 -3.02742
rclavicle -7.45443e-016 -7.55382e-015
rhumerus -39.7337 -3.42806 -73.197
rradius 58.8114
rwrist -9.28591
rhand -15.129 -11.5607
rfingers 7.12502
rthumb 11.0403 -41.2503
lclavicle -7.45443e-016 -7.55382e-015
lhumerus -54.7358 9.00816 65.1766
lradius 72.7466
lwrist -6.04737
lhand -14.3705 14.453
lfingers 7.12502
lthumb 11.7719 44.1022
rfemur -16.971 3.24217 19.1028
rtibia 32.9903
rfoot -24.7943 -19.1073
rtoes 0.402188
lfemur -9.24784 -6.00572 -15.3809
ltibia 24.1032
lfoot -21.4343 18.4579
ltoes -10.0017
2444
root -2.63495 15.529 7.41848 11.6852 -2.52683 0.351899
lowerback -4.15974 -0.962867 2.06619
upperback -7.21254 -1.29412 0.480267
thorax -5.17341 -0.744641 -0.650892
lowerneck -10.4345 4.94769 9.66399
upperneck 28.2322 6.71933 -6.15575
head 11.4359 3.36064 -3.04355
rclavicle -1.07344e-014 1.63003e-014
rhumerus -38.9654 -2.76415 -73.5648
rradius 61.0219
rwrist -10.1584
rhand -15.6301 -11.3334
rfingers 7.12502
rthumb 10.557 -41.0482
lclavicle -1.07344e-014 1.63003e-014
lhumerus -54.3284 8.77172 64.9031
lradius 75.2484
lwrist -6.18289
lhand -15.101 14.1739
lfingers 7.12502
lthumb 11.0673 43.8621
rfemur -16.7524 3.27396 19.2269
rtibia 32.8143
rfoot -24.728 -18.8525
rtoes 0.184893
lfemur -10.1648 -5.02195 -15.2228
ltibia 26.2222
lfoot -21.5394 17.6876
ltoes -11.5102
2445
root -2.64058 15.527 7.43717 11.6003 -2.72497 0.212797
lowerback -4.06739 -0.98403 2.28322
upperback -7.1911 -1.32255 0.472171
thorax -5.21024 -0.770729 -0.778641
lowerneck -10.3303 5.03863 9.71096
upperneck 28.2967 6.87451 -6.23001
head 11.4598 3.42902 -3.06068
rclavicle -7.40473e-015 1.19271e-014
rhumerus -38.1551 -2.09051 -73.9069
rradius 63.2386
rwrist -10.9164
rhand -16.1456 -11.0895
rfingers 7.12502
rthumb 10.0597 -40.8291
lclavicle -7.40473e-015 1.19271e-014
lhumerus -53.8477 8.50653 64.6754
lradius 77.7747
lwrist -6.08619
lhand -15.7927 14.0146
lfingers 7.12502
lthumb 10.4002 43.7374
rfemur -16.4922 3.28826 19.3729
rtibia 32.5736
rfoot -24.6401 -18.6121
rtoes -0.012569
lfemur -11.2174 -4.07772 -15.026
ltibia 28.5907
lfoot -21.5268 16.8791
ltoes -13.1571
2446
root -2.64532 15.5261 7.45578 11.5076 -2.88716 0.0525623
lowerback -3.95101 -1.01248 2.52699
upperback -7.16294 -1.35931 0.474939
thorax -5.2548 -0.802045 -0.909496
lowerneck -10.2253 5.12506 9.75131
upperneck 28.3435 7.02447 -6.30592
head 11.4763 3.49408 -3.07782
rclavicle 1.73937e-016 -1.35174e-014
rhumerus -37.3058 -1.40597 -74.2213
rradius 65.4498
rwrist -11.5702
rhand -16.6664 -10.8297
rfingers 7.12502
rthumb 9.55727 -40.5929
lclavicle 1.73937e-016 -1.35174e-014
lhumerus -53.292 8.19565 64.5013
lradius 80.3131
lwrist -5.75163
lhand -16.475 13.9619
lfingers 7.12502
lthumb 9.74194 43.7166
rfemur -16.1798 3.28916 19.5451
rtibia 32.265
rfoot -24.5314 -18.3922
rtoes -0.174342
lfemur -12.3912 -3.20144 -14.7823
ltibia 31.1783
lfoot -21.3722 16.0365
ltoes -14.7851
2447
root -2.64917 15.5258 7.47418 11.4057 -3.01759 -0.132952
lowerback -3.80485 -1.04669 2.79674
upperback -7.12953 -1.40179 0.490336
thorax -5.31191 -0.837256 -1.04097
lowerneck -10.1227 5.20616 9.78465
upperneck 28.3781 7.16731 -6.38126
head 11.4876 3.55518 -3.09436
rclavicle 2.73329e-016 4.37326e-015
rhumerus -36.4198 -0.713383 -74.5043
rradius 67.6474
rwrist -12.1143
rhand -17.1908 -10.5669
rfingers 7.12502
rthumb 9.05123 -40.3527
lclavicle 2.73329e-016 4.37326e-015
lhumerus -52.6589 7.84488 64.3766
lradius 82.8384
lwrist -5.23592
lhand -17.1426 14.0231
lfingers 7.12502
lthumb 9.09774 43.8069
rfemur -15.8201 3.28623 19.7479
rtibia 31.8977
rfoot -24.4036 -18.1991
rtoes -0.32232
lfemur -13.6694 -2.40377 -14.4842
ltibia 33.9363
lfoot -21.0367 15.1642
ltoes -16.2674
2448
root -2.65188 15.5255 7.49255 11.2913 -3.1213 -0.341022
lowerback -3.63141 -1.08403 3.09069
upperback -7.08881 -1.44626 0.516235
thorax -5.37798 -0.874454 -1.17433
lowerneck -10.0254 5.28148 9.81265
upperneck 28.405 7.30155 -6.45458
head 11.496 3.61194 -3.11026
rclavicle 1.29707e-014 7.95139e-016
rhumerus -35.4975 -0.0165043 -74.7546
rradius 69.8285
rwrist -12.5736
rhand -17.7283 -10.3209
rfingers 7.12502
rthumb 8.53258 -40.1285
lclavicle 1.29707e-014 7.95139e-016
lhumerus -51.9452 7.45612 64.2947
lradius 85.3264
lwrist -4.62084
lhand -17.7579 14.1377
lfingers 7.12502
lthumb 8.50395 43.9465
rfemur -15.4189 3.27553 19.9775
rtibia 31.4874
rfoot -24.2571 -18.0359
rtoes -0.493664
lfemur -15.0314 -1.69275 -14.1345
ltibia 36.8099
lfoot -20.4947 14.2694
ltoes -17.4857
2449
root -2.65316 15.5247 7.51116 11.1658 -3.20444 -0.564632
lowerback -3.43374 -1.12367 3.39993
upperback -7.04246 -1.49134 0.552161
thorax -5.45285 -0.912522 -1.30505
lowerneck -9.93516 5.35077 9.83519
upperneck 28.4289 7.42758 -6.52832
head 11.5037 3.66425 -3.12638
rclavicle 1.2921e-014 -2.66371e-014
rhumerus -34.5429 0.687466 -74.9677
rradius 71.9975
rwrist -12.9765
rhand -18.2904 -10.099
rfingers 7.12502
rthumb 7.99002 -39.928
lclavicle 1.2921e-014 -2.66371e-014
lhumerus -51.1536 7.04437 64.2471
lradius 87.7529
lwrist -4.00253
lhand -18.3057 14.2682
lfingers 7.12502
lthumb 7.97529 44.0978
rfemur -14.9917 3.2528 20.2231
rtibia 31.0578
rfoot -24.0982 -17.8933
rtoes -0.712631
lfemur -16.4552 -1.06606 -13.7429
ltibia 39.7345
lfoot -19.7312 13.3565
ltoes -18.2946
2450
root -2.65292 15.5227 7.53032 11.0306 -3.28282 -0.804927
lowerback -3.21435 -1.15998 3.72186
upperback -6.99242 -1.52923 0.598511
thorax -5.5367 -0.947474 -1.43138
lowerneck -9.85256 5.41313 9.85237
upperneck 28.4542 7.5443 -6.6025
head 11.5126 3.71162 -3.14297
rclavicle 2.73577e-014 -1.05356e-014
rhumerus -33.5623 1.39803 -75.1417
rradius 74.1592
rwrist -13.3661
rhand -18.8895 -9.89273
rfingers 7.12502
rthumb 7.41184 -39.7429
lclavicle 2.73577e-014 -1.05356e-014
lhumerus -50.2973 6.61721 64.2274
lradius 90.1105
lwrist -3.46687
lhand -18.7639 14.4109
lfingers 7.12502
lthumb 7.53301 44.2568
rfemur -14.5511 3.23123 20.4823
rtibia 30.6303
rfoot -23.9377 -17.7718
rtoes -0.948404
lfemur -17.9171 -0.509511 -13.3126
ltibia 42.6467
lfoot -18.754 12.4413
ltoes -18.7004
